<svg id="Layer_1" data-name="Layer 1" xmlns="http://www.w3.org/2000/svg" viewBox="0 0 118 323.22">
  <path d="M98.37,353c-8,1.18-8,.52-16.59,0-10.38-3-5.41-.44-6.58-1.1-2.58-1.45-5.44-2.45-7.87-4.1-11.46-7.82-19-18.65-23.82-31.53a176.48,176.48,0,0,1-10.18-45.43c-.11-1.18-1.26-25.27-1.92-26.4h0c8.16,0,16.32.07,24.48,0,3.13,0,4.29,1.18,4.59,4.38,1.15,12.19,2.18,24.42,4.08,36.51,1.84,11.8,5.19,23.27,12,33.37,4.34,6.44,11.55,8.34,18.77,6.11,8-2.46,11.13-9,14.19-15.53,8.55-18.32,9.9-38.12,10.73-57.83.71-17,.15-34,.13-51,0-1.53-.23-3.06-.41-5.18-2.78,1.94-4.81,3.36-6.85,4.76-12.34,8.46-25.61,10.2-39.69,5.27S51.27,189.66,45.13,177C38,162.12,35.2,146.11,33.34,129.89c-.17-1.53-1.93-34-1.93-35.41v-62c6.66,0,13.33-.07,20,0,3.11,0,6.91-.55,9.08,1,1.3.93-.11,5.44,0,8.33.66,30.24-2.07,60.58,2.05,90.72,1.79,13.14,4.29,26.15,11,37.95,5,8.8,14.07,11.2,23.11,6.56,7.11-3.64,9.91-10.2,12.51-16.64,6.82-16.92,6.42-23.38,9.62-40.63.32-1.9,1.6-16.11,1.6-18q.11-35.64,0-71.29h28l1,1V231.56c-.67,1-1.76,38.8-1.92,39.85-.83,5.54-1.17,11.16-2.14,16.67-2.8,15.87-6.94,31.27-16.94,44.43-5.52,7.27-11,14.39-20.33,17.37C108.08,349.88,103.11,353,98.37,353Z" transform="translate(-31.41 -30.48)" fill="#dbdfde"/>
</svg>
