<svg id="Layer_1" data-name="Layer 1" xmlns="http://www.w3.org/2000/svg" viewBox="0 0 120.1 324.4">
  <path d="M158.35,66.35c3.88,29.17-17.18,54-43.35,64.75,25.84,22.73,37.49,50.27,43.35,83.25v132c-8.59,2.68-19.61.17-29,1-8.29-67.17,29.05-183.72-61-204.77V347.35c-9.39-.79-20.41,1.65-29-1,1.89-91.64-3.68-185.28,2-276,4.36-27.94,30.07-44.22,56-47.05C125.64,21.47,148.51,40.61,158.35,66.35Zm-90,27.91c.16,2.74-3.6,20,6.72,17.6,17.62-3.16,36.71-6.25,48.83-21C149,53.13,78.32,36.21,70.31,73.07" transform="translate(-38.72 -23.22)" fill="#dbdfde"/>
</svg>
