<svg id="Layer_1" data-name="Layer 1" xmlns="http://www.w3.org/2000/svg" viewBox="0 0 183.23 324.24">
  <path  class="path" d="M210.35,127.46c-8.91,0-17.84.21-26.71-.41-.94-.06-2.08-5.07-2.21-7.83,4.22-84.08-125.89-86.86-124.88-2.84-.92,18,.34,36-.41,54-.41,9.62.85,14.56,12.33,15.22,45.23,2.73,90.07,7.09,135.3,10.82-1.44,6.51,1.73,26.56-5.83,26.94q-65.81-5.19-131.59-10.87c-7-.61-10.36.25-10.25,9,.55,43,.25,86,.25,129h-28l-1-1v-234c3.4-56.87,45.43-92.53,102-89,32.92,6.92,60,18.66,72.27,52.78C207.32,94.7,211.65,110.84,210.35,127.46Z" transform="translate(-27.35 -26.22)" fill="#dbdfde"/>
    <!-- <style type="text/css"><![CDATA[
        
        .path { transform:scale(0.45); }
      ]]></style> -->
</svg>
