<svg id="Layer_1" data-name="Layer 1" xmlns="http://www.w3.org/2000/svg" viewBox="0 0 113.55 334.61">
  <path d="M32.91,184.43c1-46.11-22.31-152,50.87-169,25.39-8.2,55.3,12,58.91,35.29.82,5.29,1.8,14.47.06,20.69-7.13,36.52-50.11,51-84.85,52.47,2.37,53.78-10.13,144.73,14.91,189.63,7,11,17.91,9.24,24.58-.24,13.78-21.79,6.62-49.05,9.57-73.4h26.83c4.27,42.53-.3,115.73-60.17,107.69C38,329.62,39.34,298,33.33,263.71c-1.27-25.46.36-52.53-.42-79.28m25-80.85c22.74-4,47.83-6.48,60.45-28.31,7.54-13.58,2.43-30.63-11.2-36.32C67.11,26.13,53.13,71,58,103.58Z" transform="translate(-30.17 -13.55)" fill="#dbdfde"/>
</svg>
